<svg width="52" height="38" viewBox="0 0 52 38" fill="none" xmlns="http://www.w3.org/2000/svg">
<g clip-path="url(#clip0_1_6)">
<g clip-path="url(#clip1_1_6)">
<path fill-rule="evenodd" clip-rule="evenodd" d="M14 10H15.652C17.36 10 18.282 12.004 17.17 13.302L15.552 15.189C15.727 16.3083 16.3175 17.3204 17.2059 18.0234C18.0943 18.7264 19.215 19.0686 20.3446 18.9816C21.4741 18.8946 22.5293 18.3849 23.2995 17.5542C24.0698 16.7235 24.4985 15.6329 24.5 14.5C24.5 14.1022 24.658 13.7206 24.9393 13.4393C25.2206 13.158 25.6022 13 26 13C26.3978 13 26.7794 13.158 27.0607 13.4393C27.342 13.7206 27.5 14.1022 27.5 14.5C27.5 16.0741 27.0047 17.6083 26.0843 18.8853C25.1639 20.1623 23.865 21.1173 22.3717 21.6151C20.8784 22.1129 19.2663 22.1282 17.7637 21.6589C16.2612 21.1895 14.9445 20.2593 14 19C13.0555 20.2593 11.7388 21.1895 10.2363 21.6589C8.73374 22.1282 7.12163 22.1129 5.62829 21.6151C4.13495 21.1173 2.83609 20.1623 1.91568 18.8853C0.99528 17.6083 0.5 16.0741 0.5 14.5C0.5 14.1022 0.658035 13.7206 0.93934 13.4393C1.22064 13.158 1.60218 13 2 13C2.39782 13 2.77936 13.158 3.06066 13.4393C3.34196 13.7206 3.5 14.1022 3.5 14.5C3.49826 15.6349 3.92537 16.7285 4.69578 17.5618C5.46619 18.3951 6.523 18.9065 7.65452 18.9936C8.78603 19.0808 9.90868 18.7371 10.7976 18.0316C11.6865 17.3261 12.276 16.3107 12.448 15.189L10.83 13.302C9.718 12.004 10.64 10 12.35 10H14Z" fill="#333333"/>
<path d="M21 6C22.6569 6 24 4.65685 24 3C24 1.34315 22.6569 0 21 0C19.3431 0 18 1.34315 18 3C18 4.65685 19.3431 6 21 6Z" fill="#333333"/>
<path d="M7 6C8.65685 6 10 4.65685 10 3C10 1.34315 8.65685 0 7 0C5.34315 0 4 1.34315 4 3C4 4.65685 5.34315 6 7 6Z" fill="#333333"/>
</g>
<path d="M40 31.0348C37.2348 31.0348 34.9652 28.7913 34.9652 26C34.9652 23.2348 37.2087 20.9652 40 20.9652C42.7652 20.9652 45.0348 23.2087 45.0348 26C45.0348 28.7652 42.7652 31.0348 40 31.0348ZM40 22.8174C38.2522 22.8174 36.8174 24.2522 36.8174 26C36.8174 27.7478 38.2522 29.1826 40 29.1826C41.7478 29.1826 43.1826 27.7478 43.1826 26C43.1826 24.2522 41.7478 22.8174 40 22.8174ZM40 38H39.8696C38.9565 38 38.1739 37.8957 38.1217 37.8957C37.7043 37.8435 37.3913 37.5304 37.313 37.113L37.0522 35.2348C36.4783 35.0522 35.9304 34.8174 35.4087 34.5304L33.9478 35.6522C33.6087 35.913 33.1652 35.887 32.8261 35.6522C32.8 35.6261 32.1739 35.1304 31.5217 34.5043L31.4174 34.4C30.7652 33.7478 30.2957 33.1217 30.2696 33.0957C30.0087 32.7565 30.0087 32.313 30.2696 31.9739L31.4174 30.4609C31.1304 29.9391 30.9217 29.3652 30.7391 28.7913L28.913 28.5304C28.4957 28.4783 28.1826 28.1391 28.1304 27.7217C28.1043 27.6957 28 26.913 28 26V25.8696C28 24.9565 28.1043 24.1739 28.1043 24.1217C28.1565 23.7043 28.4696 23.3913 28.887 23.313L30.7652 23.0522C30.9478 22.4783 31.1826 21.9304 31.4696 21.4087L30.3478 19.9478C30.087 19.6087 30.113 19.1652 30.3478 18.8261C30.3739 18.8 30.8696 18.1739 31.4957 17.5217L31.6 17.4174C32.2522 16.7652 32.8783 16.2957 32.9043 16.2696C33.2435 16.0087 33.687 16.0087 34.0261 16.2696L35.5391 17.4174C36.0609 17.1304 36.6348 16.9217 37.2087 16.7391L37.4696 14.913C37.5217 14.4957 37.8609 14.1826 38.2783 14.1304C38.3043 14.1043 39.087 14 40 14H40.1304C41.0435 14 41.8261 14.1043 41.8783 14.1043C42.2957 14.1565 42.6087 14.4696 42.687 14.887L42.9478 16.7652C43.5217 16.9478 44.0696 17.1826 44.5913 17.4696L46.0522 16.3478C46.3913 16.087 46.8348 16.113 47.1739 16.3478C47.2 16.3739 47.8261 16.8696 48.4783 17.4957L48.5826 17.6C49.2348 18.2522 49.7043 18.8783 49.7304 18.9043C49.9913 19.2435 49.9913 19.687 49.7304 20.0261L48.6087 21.5391C48.8957 22.0609 49.1043 22.6348 49.287 23.2087L51.113 23.4696C51.5304 23.5217 51.8435 23.8609 51.8957 24.2783C51.8957 24.3043 52 25.113 52 26.0261V26.1565C52 27.0696 51.8957 27.8522 51.8957 27.9043C51.8435 28.3217 51.5304 28.6348 51.113 28.713L49.2348 28.9739C49.0522 29.5478 48.8174 30.0957 48.5304 30.6174L49.6522 32.1043C49.913 32.4435 49.887 32.887 49.6522 33.2261C49.6261 33.2522 49.1304 33.8783 48.5043 34.5304L48.4 34.6348C47.7478 35.287 47.1217 35.7565 47.0957 35.7826C46.7565 36.0435 46.313 36.0435 45.9739 35.7826L44.4609 34.6087C43.9391 34.8957 43.3652 35.1043 42.7913 35.287L42.5304 37.113C42.4783 37.5304 42.1391 37.8435 41.7217 37.8957C41.6957 37.8957 40.913 38 40 38ZM39.0609 36.1217C39.2957 36.1478 39.5826 36.1478 39.8696 36.1478H40C40.287 36.1478 40.5739 36.1478 40.8087 36.1217L41.0435 34.4C41.0957 34.0087 41.3826 33.7217 41.7478 33.6174C42.5565 33.4348 43.3391 33.1217 44.0435 32.6783C44.2522 32.5478 44.513 32.5217 44.7478 32.5739C44.8783 32.6 45.0087 32.6783 45.113 32.7565L46.4957 33.8C46.6783 33.6435 46.887 33.4609 47.0957 33.2522L47.2 33.1478C47.4087 32.9391 47.5913 32.7304 47.7478 32.5478L46.7043 31.1652C46.4696 30.8522 46.4696 30.4348 46.6522 30.1217C47.0957 29.4435 47.4087 28.687 47.5913 27.9043C47.6696 27.513 47.9826 27.2 48.3739 27.1478L50.1217 26.913C50.1478 26.6783 50.1478 26.3913 50.1478 26.1043V26C50.1478 25.713 50.1478 25.4261 50.1217 25.1913L48.4 24.9565C48.0348 24.9043 47.7217 24.6174 47.6174 24.2522C47.4348 23.4435 47.1217 22.687 46.7043 21.9826C46.6522 21.9304 46.6261 21.8522 46.6 21.7739C46.4957 21.487 46.5478 21.1478 46.7304 20.913L47.8 19.5043C47.6435 19.3217 47.4609 19.113 47.2522 18.9043L47.1478 18.8C46.9391 18.5913 46.7304 18.4087 46.5478 18.2522L45.1652 19.2957C44.8261 19.5304 44.3826 19.5304 44.0696 19.2957C43.3913 18.8783 42.6348 18.5652 41.8522 18.3565C41.487 18.2783 41.2 17.9652 41.1478 17.5739L40.913 15.8261C40.6783 15.8 40.3913 15.8 40.1043 15.8H40C39.713 15.8 39.4261 15.8 39.1913 15.8261L38.9565 17.6C38.9043 18.0174 38.5913 18.3304 38.1739 18.3826C37.3913 18.5652 36.6348 18.8783 35.9565 19.2957C35.7478 19.4261 35.487 19.4522 35.2522 19.4C35.1217 19.3739 34.9913 19.2957 34.887 19.2174L33.5304 18.1739C33.3478 18.3304 33.1391 18.513 32.9304 18.7217L32.8261 18.8261C32.6174 19.0348 32.4348 19.2435 32.2783 19.4261L33.3217 20.8087C33.5565 21.1217 33.5565 21.513 33.3739 21.8522C33.3478 21.8783 33.3478 21.9043 33.3217 21.9304C32.9043 22.6087 32.5913 23.3652 32.4087 24.1478C32.3304 24.513 32.0174 24.8 31.6261 24.8522L29.8783 25.087C29.8522 25.3217 29.8522 25.6087 29.8522 25.8957V26C29.8522 26.287 29.8522 26.5739 29.8783 26.8087L31.6 27.0435C32.0174 27.0957 32.3304 27.4087 32.3826 27.8261V27.8522C32.5652 28.6348 32.8783 29.3652 33.2957 30.0435C33.4261 30.2783 33.4783 30.5652 33.3739 30.8261C33.3478 30.9304 33.2696 31.0348 33.1913 31.1391L32.1739 32.4957C32.3304 32.6783 32.513 32.887 32.7217 33.0957L32.8261 33.2C33.0348 33.4087 33.2435 33.5913 33.4261 33.7478L34.8087 32.7043C35.1478 32.4435 35.6435 32.4696 35.9565 32.7304C36.6348 33.1478 37.3652 33.4348 38.1217 33.6435C38.487 33.7217 38.7739 34.0348 38.8261 34.4261L39.0609 36.1217Z" fill="#333333"/>
</g>
<defs>
<clipPath id="clip0_1_6">
<rect width="52" height="38" fill="white"/>
</clipPath>
<clipPath id="clip1_1_6">
<rect width="28" height="22" fill="white"/>
</clipPath>
</defs>
</svg>
